<svg width="145" height="179" viewBox="0 0 145 179" fill="none" xmlns="http://www.w3.org/2000/svg">
<path d="M132.668 156.615C125.25 167.712 117.386 178.541 105.411 178.72C93.4364 178.988 89.5937 171.65 76.0102 171.65C62.3374 171.65 58.1372 178.541 46.7879 178.988C35.081 179.436 26.2339 167.175 18.7272 156.346C3.44583 134.241 -8.26099 93.5213 7.46725 66.1361C15.242 52.533 29.1829 43.9416 44.2856 43.6731C55.7244 43.4941 66.6269 51.4591 73.6867 51.4591C80.6572 51.4591 93.8832 41.8832 107.735 43.3151C113.544 43.5836 129.808 45.642 140.264 61.0349C139.459 61.5719 120.871 72.4902 121.05 95.1322C121.318 122.159 144.732 131.198 145 131.288C144.732 131.914 141.247 144.175 132.668 156.615ZM81.6402 13.4241C88.1639 5.9961 98.977 0.357976 107.914 0C109.075 10.4708 104.875 21.0311 98.6196 28.5486C92.4534 36.1556 82.2658 42.0622 72.2569 41.2568C70.9164 30.9649 75.9209 20.2257 81.6402 13.4241Z" fill="#F7F7F7"/>
</svg>
