<svg width="145" height="161" viewBox="0 0 145 161" fill="none" xmlns="http://www.w3.org/2000/svg">
<path d="M139.909 89.2074L113.54 104.087L89.8882 80.6541L113.728 57.0337L139.909 71.8057C141.454 72.6768 142.74 73.9413 143.634 75.47C144.529 76.9987 145 78.7368 145 80.5065C145 82.2763 144.529 84.0144 143.634 85.5431C142.74 87.0717 141.454 88.3363 139.909 89.2074ZM0.753611 6.1971C0.25661 7.40639 0.00063999 8.70063 0 10.0075V150.999C0 152.455 0.30279 153.81 0.834354 155.024L75.8926 80.6474L0.753611 6.1971ZM82.8904 73.7176L104.812 51.9956L14.9713 1.30664C13.0449 0.205335 10.8028 -0.217632 8.60596 0.105833L82.8904 73.7176ZM82.8904 87.5839L8.87511 160.927C10.8803 161.169 12.9931 160.82 14.9713 159.7L104.624 109.118L82.8904 87.5839Z" fill="#F7F7F7"/>
</svg>
